<?xml version="1.0" encoding="utf-8"?>
<!-- Generator: Adobe Illustrator 23.0.1, SVG Export Plug-In . SVG Version: 6.00 Build 0)  -->
<svg version="1.1" id="Layer_1" xmlns="http://www.w3.org/2000/svg" xmlns:xlink="http://www.w3.org/1999/xlink" x="0px" y="0px"
	 viewBox="0 0 503.4 122.9" style="enable-background:new 0 0 503.4 122.9;" xml:space="preserve">
<style type="text/css">
	.st0{clip-path:url(#SVGID_2_);fill:url(#SVGID_3_);}
</style>
<text transform="matrix(1 0 0 1 -129.9737 103.512)" style="font-family:'Rubik-Bold'; font-size:12px;">TRITON</text>
<g>
	<defs>
		<path id="SVGID_1_" d="M82.4,12.2c0.7,0.7,1.1,1.6,1.1,2.6v14.6c0,1-0.4,1.9-1.1,2.6c-0.7,0.7-1.6,1.1-2.6,1.1H55.5v70.6
			c0,1-0.4,1.9-1.1,2.6c-0.7,0.7-1.6,1.1-2.6,1.1h-18c-1,0-1.9-0.4-2.6-1.1c-0.7-0.7-1.1-1.6-1.1-2.6V33.1H5.9c-1,0-1.9-0.4-2.6-1.1
			c-0.7-0.7-1.1-1.6-1.1-2.6V14.8c0-1,0.4-1.9,1.1-2.6c0.7-0.7,1.6-1.1,2.6-1.1h73.9C80.8,11.1,81.6,11.4,82.4,12.2z M165.5,19
			c6.8,5.3,10.2,13.1,10.2,23.6c0,13.3-5.5,22.5-16.4,27.5l17.1,32.7c0.3,0.6,0.4,1.1,0.4,1.5c0,0.8-0.3,1.5-0.9,2.1
			c-0.6,0.6-1.3,0.9-2.1,0.9H155c-1.7,0-2.9-0.3-3.7-1c-0.8-0.7-1.5-1.6-2.1-2.7L134,74.2h-12.7v29.4c0,1-0.4,1.9-1.1,2.6
			c-0.7,0.7-1.6,1.1-2.6,1.1h-18c-1,0-1.9-0.4-2.6-1.1c-0.7-0.7-1.1-1.6-1.1-2.6V14.8c0-1,0.4-1.9,1.1-2.6c0.7-0.7,1.6-1.1,2.6-1.1
			h37.3C149.1,11.1,158.7,13.7,165.5,19z M136.8,52.8c8.9,0,13.3-3.4,13.3-10.2c0-6.8-4.4-10.2-13.3-10.2h-15.5v20.4H136.8z
			 M192.6,106.3c-0.7-0.7-1.1-1.6-1.1-2.6V14.8c0-1,0.4-1.9,1.1-2.6c0.7-0.7,1.6-1.1,2.6-1.1h18c1,0,1.9,0.4,2.6,1.1
			c0.7,0.7,1.1,1.6,1.1,2.6v88.9c0,1-0.4,1.9-1.1,2.6c-0.7,0.7-1.6,1.1-2.6,1.1h-18C194.2,107.4,193.3,107,192.6,106.3z M307.8,12.2
			c0.7,0.7,1.1,1.6,1.1,2.6v14.6c0,1-0.4,1.9-1.1,2.6c-0.7,0.7-1.6,1.1-2.6,1.1H281v70.6c0,1-0.4,1.9-1.1,2.6
			c-0.7,0.7-1.6,1.1-2.6,1.1h-18c-1,0-1.9-0.4-2.6-1.1c-0.7-0.7-1.1-1.6-1.1-2.6V33.1h-24.2c-1,0-1.9-0.4-2.6-1.1
			c-0.7-0.7-1.1-1.6-1.1-2.6V14.8c0-1,0.4-1.9,1.1-2.6c0.7-0.7,1.6-1.1,2.6-1.1h73.9C306.2,11.1,307.1,11.4,307.8,12.2z M383.6,14.6
			c6.3,3.3,11.2,7.8,14.7,13.4c3.4,5.6,5.3,11.9,5.7,18.9c0.2,2.6,0.3,6.7,0.3,12.4c0,5.6-0.1,9.6-0.3,12.1
			c-0.4,7-2.3,13.3-5.7,18.9c-3.4,5.6-8.3,10.1-14.7,13.4s-13.8,5-22.6,5c-8.7,0-16.2-1.7-22.6-5s-11.2-7.8-14.7-13.4
			c-3.4-5.6-5.3-11.9-5.7-18.9c-0.2-5-0.3-9-0.3-12.1c0-3.1,0.1-7.2,0.3-12.4c0.4-7,2.3-13.3,5.7-18.9c3.4-5.6,8.3-10.1,14.7-13.4
			s13.8-5,22.6-5C369.8,9.7,377.3,11.3,383.6,14.6z M373.5,36c-2.9-2.9-7-4.3-12.5-4.3c-5.4,0-9.6,1.4-12.5,4.3
			c-2.9,2.9-4.6,6.8-5,11.6c-0.3,3-0.4,6.8-0.4,11.4c0,4.5,0.1,8.4,0.4,11.7c0.5,4.9,2.1,8.7,5,11.6c2.9,2.9,7,4.3,12.5,4.3
			c5.4,0,9.6-1.4,12.5-4.3s4.6-6.8,5-11.6c0.3-3.3,0.4-7.2,0.4-11.7c0-4.6-0.1-8.4-0.4-11.4C378.1,42.8,376.4,38.9,373.5,36z
			 M479.1,106.3c-1-0.7-1.7-1.4-2.1-2.1l-31.5-47v46.5c0,1-0.4,1.9-1.1,2.6c-0.7,0.7-1.6,1.1-2.6,1.1h-18c-1,0-1.9-0.4-2.6-1.1
			c-0.7-0.7-1.1-1.6-1.1-2.6V14.8c0-1,0.4-1.9,1.1-2.6c0.7-0.7,1.6-1.1,2.6-1.1h14.3c1.4,0,2.6,0.3,3.6,1c1,0.7,1.7,1.4,2.1,2.1
			l31.5,47V14.8c0-1,0.4-1.9,1.1-2.6c0.7-0.7,1.6-1.1,2.6-1.1h18c1,0,1.9,0.4,2.6,1.1c0.7,0.7,1.1,1.6,1.1,2.6v88.9
			c0,1-0.4,1.9-1.1,2.6c-0.7,0.7-1.6,1.1-2.6,1.1h-14.3C481.3,107.4,480.1,107,479.1,106.3z"/>
	</defs>
	<clipPath id="SVGID_2_">
		<use xlink:href="#SVGID_1_"  style="overflow:visible;"/>
	</clipPath>
	<linearGradient id="SVGID_3_" gradientUnits="userSpaceOnUse" x1="-1.5965" y1="217.2359" x2="530.2191" y2="-72.9824">
		<stop  offset="0" style="stop-color:#67A7FF"/>
		<stop  offset="0.3238" style="stop-color:#5C9EFF"/>
		<stop  offset="0.8937" style="stop-color:#3E85FF"/>
		<stop  offset="1" style="stop-color:#3880FF"/>
	</linearGradient>
	<rect x="0.2" y="-111.1" class="st0" width="527.4" height="366.9"/>
</g>
</svg>
